<svg width="162" height="43" viewBox="0 0 162 43" fill="none" xmlns="http://www.w3.org/2000/svg">
<path d="M24.9887 27.0563C21.875 25.8324 19.6171 25.4315 16.6495 25.9581C14.0036 26.4276 11.9311 28.4036 10.7285 30.8067L7.2456 37.767C6.566 39.1251 4.89702 39.6509 3.56167 38.9276V38.9276C2.38037 38.2877 1.85294 36.8739 2.32651 35.6166L13.8852 4.93114C14.5726 3.10625 16.3187 1.89813 18.2688 1.89813V1.89813C20.2605 1.89813 22.0345 3.1577 22.6911 5.03813L33.5808 36.2243C33.9554 37.297 35.5446 37.0133 35.5248 35.8772L34.9907 5.20971C34.959 3.39018 36.4253 1.89813 38.2451 1.89813V1.89813C40.0427 1.89813 41.5 3.3554 41.5 5.15303V38.3139" stroke="#2F84C3" stroke-width="3" stroke-linecap="round"/>
<path d="M68.62 18.2C69.4733 18.2 70.2267 18.3667 70.88 18.7C71.5467 19.0333 72.0667 19.5467 72.44 20.24C72.8133 20.92 73 21.8 73 22.88V29H70.5V23.2C70.5 22.2533 70.2933 21.5467 69.88 21.08C69.4667 20.6133 68.8733 20.38 68.1 20.38C67.5533 20.38 67.0667 20.5 66.64 20.74C66.2267 20.98 65.9 21.3333 65.66 21.8C65.4333 22.2667 65.32 22.86 65.32 23.58V29H62.82V23.2C62.82 22.2533 62.6133 21.5467 62.2 21.08C61.7867 20.6133 61.1933 20.38 60.42 20.38C59.8733 20.38 59.3867 20.5 58.96 20.74C58.5467 20.98 58.22 21.3333 57.98 21.8C57.7533 22.2667 57.64 22.86 57.64 23.58V29H55.14V18.32H57.52V21.16L57.1 20.32C57.46 19.6267 57.98 19.1 58.66 18.74C59.3533 18.38 60.14 18.2 61.02 18.2C62.02 18.2 62.8867 18.4467 63.62 18.94C64.3667 19.4333 64.86 20.18 65.1 21.18L64.12 20.84C64.4667 20.04 65.04 19.4 65.84 18.92C66.64 18.44 67.5667 18.2 68.62 18.2ZM76.8794 33.02C76.3594 33.02 75.8394 32.9333 75.3194 32.76C74.7994 32.5867 74.366 32.3467 74.0194 32.04L75.0194 30.2C75.2727 30.4267 75.5594 30.6067 75.8794 30.74C76.1994 30.8733 76.526 30.94 76.8594 30.94C77.3127 30.94 77.6794 30.8267 77.9594 30.6C78.2394 30.3733 78.4994 29.9933 78.7394 29.46L79.3594 28.06L79.5594 27.76L83.5994 18.32H85.9994L80.9994 29.86C80.666 30.66 80.2927 31.2933 79.8794 31.76C79.4794 32.2267 79.026 32.5533 78.5194 32.74C78.026 32.9267 77.4794 33.02 76.8794 33.02ZM79.0794 29.38L74.2594 18.32H76.8594L80.7794 27.54L79.0794 29.38ZM85.275 29L91.575 15H94.135L100.455 29H97.735L92.315 16.38H93.355L87.955 29H85.275ZM88.175 25.76L88.875 23.72H96.435L97.135 25.76H88.175ZM102.235 29V15H104.835V29H102.235ZM121.862 18.2C122.716 18.2 123.469 18.3667 124.122 18.7C124.789 19.0333 125.309 19.5467 125.682 20.24C126.056 20.92 126.242 21.8 126.242 22.88V29H123.742V23.2C123.742 22.2533 123.536 21.5467 123.122 21.08C122.709 20.6133 122.116 20.38 121.342 20.38C120.796 20.38 120.309 20.5 119.882 20.74C119.469 20.98 119.142 21.3333 118.902 21.8C118.676 22.2667 118.562 22.86 118.562 23.58V29H116.062V23.2C116.062 22.2533 115.856 21.5467 115.442 21.08C115.029 20.6133 114.436 20.38 113.662 20.38C113.116 20.38 112.629 20.5 112.202 20.74C111.789 20.98 111.462 21.3333 111.222 21.8C110.996 22.2667 110.882 22.86 110.882 23.58V29H108.382V18.32H110.762V21.16L110.342 20.32C110.702 19.6267 111.222 19.1 111.902 18.74C112.596 18.38 113.382 18.2 114.262 18.2C115.262 18.2 116.129 18.4467 116.862 18.94C117.609 19.4333 118.102 20.18 118.342 21.18L117.362 20.84C117.709 20.04 118.282 19.4 119.082 18.92C119.882 18.44 120.809 18.2 121.862 18.2ZM136.017 29V26.84L135.877 26.38V22.6C135.877 21.8667 135.657 21.3 135.217 20.9C134.777 20.4867 134.11 20.28 133.217 20.28C132.617 20.28 132.024 20.3733 131.437 20.56C130.864 20.7467 130.377 21.0067 129.977 21.34L128.997 19.52C129.57 19.08 130.25 18.7533 131.037 18.54C131.837 18.3133 132.664 18.2 133.517 18.2C135.064 18.2 136.257 18.5733 137.097 19.32C137.95 20.0533 138.377 21.1933 138.377 22.74V29H136.017ZM132.657 29.14C131.857 29.14 131.157 29.0067 130.557 28.74C129.957 28.46 129.49 28.08 129.157 27.6C128.837 27.1067 128.677 26.5533 128.677 25.94C128.677 25.34 128.817 24.8 129.097 24.32C129.39 23.84 129.864 23.46 130.517 23.18C131.17 22.9 132.037 22.76 133.117 22.76H136.217V24.42H133.297C132.444 24.42 131.87 24.56 131.577 24.84C131.284 25.1067 131.137 25.44 131.137 25.84C131.137 26.2933 131.317 26.6533 131.677 26.92C132.037 27.1867 132.537 27.32 133.177 27.32C133.79 27.32 134.337 27.18 134.817 26.9C135.31 26.62 135.664 26.2067 135.877 25.66L136.297 27.16C136.057 27.7867 135.624 28.2733 134.997 28.62C134.384 28.9667 133.604 29.14 132.657 29.14ZM145.605 29.14C144.432 29.14 143.525 28.84 142.885 28.24C142.245 27.6267 141.925 26.7267 141.925 25.54V15.96H144.425V25.48C144.425 25.9867 144.552 26.38 144.805 26.66C145.072 26.94 145.439 27.08 145.905 27.08C146.465 27.08 146.932 26.9333 147.305 26.64L148.005 28.42C147.712 28.66 147.352 28.84 146.925 28.96C146.499 29.08 146.059 29.14 145.605 29.14ZM140.165 20.4V18.4H147.285V20.4H140.165ZM154.73 29.14C153.544 29.14 152.504 28.9067 151.61 28.44C150.73 27.96 150.044 27.3067 149.55 26.48C149.07 25.6533 148.83 24.7133 148.83 23.66C148.83 22.5933 149.064 21.6533 149.53 20.84C150.01 20.0133 150.664 19.3667 151.49 18.9C152.33 18.4333 153.284 18.2 154.35 18.2C155.39 18.2 156.317 18.4267 157.13 18.88C157.944 19.3333 158.584 19.9733 159.05 20.8C159.517 21.6267 159.75 22.6 159.75 23.72C159.75 23.8267 159.744 23.9467 159.73 24.08C159.73 24.2133 159.724 24.34 159.71 24.46H150.81V22.8H158.39L157.41 23.32C157.424 22.7067 157.297 22.1667 157.03 21.7C156.764 21.2333 156.397 20.8667 155.93 20.6C155.477 20.3333 154.95 20.2 154.35 20.2C153.737 20.2 153.197 20.3333 152.73 20.6C152.277 20.8667 151.917 21.24 151.65 21.72C151.397 22.1867 151.27 22.74 151.27 23.38V23.78C151.27 24.42 151.417 24.9867 151.71 25.48C152.004 25.9733 152.417 26.3533 152.95 26.62C153.484 26.8867 154.097 27.02 154.79 27.02C155.39 27.02 155.93 26.9267 156.41 26.74C156.89 26.5533 157.317 26.26 157.69 25.86L159.03 27.4C158.55 27.96 157.944 28.3933 157.21 28.7C156.49 28.9933 155.664 29.14 154.73 29.14Z" fill="#0D0D0D"/>
</svg>
