<svg width="161" height="43" viewBox="0 0 161 43" fill="none" xmlns="http://www.w3.org/2000/svg">
<path d="M24.4887 27.1581C21.375 25.9342 19.1171 25.5334 16.1495 26.06C13.5036 26.5295 11.4311 28.5055 10.2285 30.9086L6.7456 37.8688C6.066 39.2269 4.39702 39.7527 3.06167 39.0294V39.0294C1.88037 38.3896 1.35294 36.9757 1.82651 35.7185L13.3852 5.03301C14.0726 3.20812 15.8187 2 17.7688 2V2C19.7605 2 21.5345 3.25956 22.1911 5.14L33.0808 36.3262C33.4554 37.3989 35.0446 37.1152 35.0248 35.9791L34.4907 5.31158C34.459 3.49205 35.9253 2 37.7451 2V2C39.5427 2 41 3.45727 41 5.2549V38.4158" stroke="#F0F3F7" stroke-width="3" stroke-linecap="round"/>
<path d="M68.12 18.3018C68.9733 18.3018 69.7267 18.4685 70.38 18.8018C71.0467 19.1351 71.5667 19.6485 71.94 20.3418C72.3133 21.0218 72.5 21.9018 72.5 22.9818V29.1018H70V23.3018C70 22.3551 69.7933 21.6485 69.38 21.1818C68.9667 20.7151 68.3733 20.4818 67.6 20.4818C67.0533 20.4818 66.5667 20.6018 66.14 20.8418C65.7267 21.0818 65.4 21.4351 65.16 21.9018C64.9333 22.3685 64.82 22.9618 64.82 23.6818V29.1018H62.32V23.3018C62.32 22.3551 62.1133 21.6485 61.7 21.1818C61.2867 20.7151 60.6933 20.4818 59.92 20.4818C59.3733 20.4818 58.8867 20.6018 58.46 20.8418C58.0467 21.0818 57.72 21.4351 57.48 21.9018C57.2533 22.3685 57.14 22.9618 57.14 23.6818V29.1018H54.64V18.4218H57.02V21.2618L56.6 20.4218C56.96 19.7285 57.48 19.2018 58.16 18.8418C58.8533 18.4818 59.64 18.3018 60.52 18.3018C61.52 18.3018 62.3867 18.5485 63.12 19.0418C63.8667 19.5351 64.36 20.2818 64.6 21.2818L63.62 20.9418C63.9667 20.1418 64.54 19.5018 65.34 19.0218C66.14 18.5418 67.0667 18.3018 68.12 18.3018ZM76.3794 33.1218C75.8594 33.1218 75.3394 33.0351 74.8194 32.8618C74.2994 32.6885 73.866 32.4485 73.5194 32.1418L74.5194 30.3018C74.7727 30.5285 75.0594 30.7085 75.3794 30.8418C75.6994 30.9751 76.026 31.0418 76.3594 31.0418C76.8127 31.0418 77.1794 30.9285 77.4594 30.7018C77.7394 30.4751 77.9994 30.0951 78.2394 29.5618L78.8594 28.1618L79.0594 27.8618L83.0994 18.4218H85.4994L80.4994 29.9618C80.166 30.7618 79.7927 31.3951 79.3794 31.8618C78.9794 32.3285 78.526 32.6551 78.0194 32.8418C77.526 33.0285 76.9794 33.1218 76.3794 33.1218ZM78.5794 29.4818L73.7594 18.4218H76.3594L80.2794 27.6418L78.5794 29.4818ZM84.775 29.1018L91.075 15.1018H93.635L99.955 29.1018H97.235L91.815 16.4818H92.855L87.455 29.1018H84.775ZM87.675 25.8618L88.375 23.8218H95.935L96.635 25.8618H87.675ZM101.735 29.1018V15.1018H104.335V29.1018H101.735ZM121.362 18.3018C122.216 18.3018 122.969 18.4685 123.622 18.8018C124.289 19.1351 124.809 19.6485 125.182 20.3418C125.556 21.0218 125.742 21.9018 125.742 22.9818V29.1018H123.242V23.3018C123.242 22.3551 123.036 21.6485 122.622 21.1818C122.209 20.7151 121.616 20.4818 120.842 20.4818C120.296 20.4818 119.809 20.6018 119.382 20.8418C118.969 21.0818 118.642 21.4351 118.402 21.9018C118.176 22.3685 118.062 22.9618 118.062 23.6818V29.1018H115.562V23.3018C115.562 22.3551 115.356 21.6485 114.942 21.1818C114.529 20.7151 113.936 20.4818 113.162 20.4818C112.616 20.4818 112.129 20.6018 111.702 20.8418C111.289 21.0818 110.962 21.4351 110.722 21.9018C110.496 22.3685 110.382 22.9618 110.382 23.6818V29.1018H107.882V18.4218H110.262V21.2618L109.842 20.4218C110.202 19.7285 110.722 19.2018 111.402 18.8418C112.096 18.4818 112.882 18.3018 113.762 18.3018C114.762 18.3018 115.629 18.5485 116.362 19.0418C117.109 19.5351 117.602 20.2818 117.842 21.2818L116.862 20.9418C117.209 20.1418 117.782 19.5018 118.582 19.0218C119.382 18.5418 120.309 18.3018 121.362 18.3018ZM135.517 29.1018V26.9418L135.377 26.4818V22.7018C135.377 21.9685 135.157 21.4018 134.717 21.0018C134.277 20.5885 133.61 20.3818 132.717 20.3818C132.117 20.3818 131.524 20.4751 130.937 20.6618C130.364 20.8485 129.877 21.1085 129.477 21.4418L128.497 19.6218C129.07 19.1818 129.75 18.8551 130.537 18.6418C131.337 18.4151 132.164 18.3018 133.017 18.3018C134.564 18.3018 135.757 18.6751 136.597 19.4218C137.45 20.1551 137.877 21.2951 137.877 22.8418V29.1018H135.517ZM132.157 29.2418C131.357 29.2418 130.657 29.1085 130.057 28.8418C129.457 28.5618 128.99 28.1818 128.657 27.7018C128.337 27.2085 128.177 26.6551 128.177 26.0418C128.177 25.4418 128.317 24.9018 128.597 24.4218C128.89 23.9418 129.364 23.5618 130.017 23.2818C130.67 23.0018 131.537 22.8618 132.617 22.8618H135.717V24.5218H132.797C131.944 24.5218 131.37 24.6618 131.077 24.9418C130.784 25.2085 130.637 25.5418 130.637 25.9418C130.637 26.3951 130.817 26.7551 131.177 27.0218C131.537 27.2885 132.037 27.4218 132.677 27.4218C133.29 27.4218 133.837 27.2818 134.317 27.0018C134.81 26.7218 135.164 26.3085 135.377 25.7618L135.797 27.2618C135.557 27.8885 135.124 28.3751 134.497 28.7218C133.884 29.0685 133.104 29.2418 132.157 29.2418ZM145.105 29.2418C143.932 29.2418 143.025 28.9418 142.385 28.3418C141.745 27.7285 141.425 26.8285 141.425 25.6418V16.0618H143.925V25.5818C143.925 26.0885 144.052 26.4818 144.305 26.7618C144.572 27.0418 144.939 27.1818 145.405 27.1818C145.965 27.1818 146.432 27.0351 146.805 26.7418L147.505 28.5218C147.212 28.7618 146.852 28.9418 146.425 29.0618C145.999 29.1818 145.559 29.2418 145.105 29.2418ZM139.665 20.5018V18.5018H146.785V20.5018H139.665ZM154.23 29.2418C153.044 29.2418 152.004 29.0085 151.11 28.5418C150.23 28.0618 149.544 27.4085 149.05 26.5818C148.57 25.7551 148.33 24.8151 148.33 23.7618C148.33 22.6951 148.564 21.7551 149.03 20.9418C149.51 20.1151 150.164 19.4685 150.99 19.0018C151.83 18.5351 152.784 18.3018 153.85 18.3018C154.89 18.3018 155.817 18.5285 156.63 18.9818C157.444 19.4351 158.084 20.0751 158.55 20.9018C159.017 21.7285 159.25 22.7018 159.25 23.8218C159.25 23.9285 159.244 24.0485 159.23 24.1818C159.23 24.3151 159.224 24.4418 159.21 24.5618H150.31V22.9018H157.89L156.91 23.4218C156.924 22.8085 156.797 22.2685 156.53 21.8018C156.264 21.3351 155.897 20.9685 155.43 20.7018C154.977 20.4351 154.45 20.3018 153.85 20.3018C153.237 20.3018 152.697 20.4351 152.23 20.7018C151.777 20.9685 151.417 21.3418 151.15 21.8218C150.897 22.2885 150.77 22.8418 150.77 23.4818V23.8818C150.77 24.5218 150.917 25.0885 151.21 25.5818C151.504 26.0751 151.917 26.4551 152.45 26.7218C152.984 26.9885 153.597 27.1218 154.29 27.1218C154.89 27.1218 155.43 27.0285 155.91 26.8418C156.39 26.6551 156.817 26.3618 157.19 25.9618L158.53 27.5018C158.05 28.0618 157.444 28.4951 156.71 28.8018C155.99 29.0951 155.164 29.2418 154.23 29.2418Z" fill="#0D0D0D"/>
</svg>
